<svg width="18" height="15" viewBox="0 0 18 15" fill="none" xmlns="http://www.w3.org/2000/svg">
<path d="M8.62551 14.2505L15.6068 7.16927C16.3394 6.4366 16.751 5.4429 16.751 4.40676C16.751 3.37063 16.3394 2.37693 15.6068 1.64426C14.8741 0.911604 13.8804 0.5 12.8443 0.5C11.8081 0.5 10.8144 0.911604 10.0818 1.64426L8.62551 3.00051L7.16927 1.64426C6.4366 0.911604 5.4429 0.5 4.40676 0.5C3.37063 0.5 2.37693 0.911604 1.64426 1.64426C0.911604 2.37693 0.5 3.37063 0.5 4.40676C0.5 5.4429 0.911604 6.4366 1.64426 7.16927L8.62551 14.2505Z" stroke="black" stroke-linecap="round" stroke-linejoin="round"/>
</svg>
