<svg width="70" height="25" viewBox="0 0 70 25" fill="none" xmlns="http://www.w3.org/2000/svg">
<path d="M7.72152 24.9898C5.63581 24.9067 3.92939 24.3348 2.5951 23.2726C2.34046 23.0697 1.73368 22.4612 1.53011 22.2046C0.989035 21.5228 0.621178 20.8593 0.375821 20.1231C-0.379178 17.8569 0.00939274 14.8831 1.48725 11.6195C2.7526 8.82537 4.7051 6.05417 8.11152 2.21609C8.61331 1.65132 10.1076 -0.000366211 10.1172 -0.000366211C10.1208 -0.000366211 10.0394 0.141002 9.93688 0.313152C9.05117 1.79985 8.29331 3.55104 7.88045 5.06709C7.21724 7.49972 7.29724 9.58733 8.11474 11.2061C8.67867 12.3213 9.64545 13.2873 10.7326 13.8212C12.6358 14.7557 15.4222 14.833 18.8251 14.0474C19.0594 13.993 30.6686 10.9047 44.6236 7.18441C58.5786 3.46371 69.9982 0.421951 70 0.424456C70.0039 0.427683 37.5786 14.332 20.7461 21.5454C18.0804 22.6874 17.3676 22.9759 16.1144 23.4168C12.9108 24.5442 10.0412 25.0821 7.72152 24.9898Z" fill="white"/>
</svg>
